<svg xmlns="http://www.w3.org/2000/svg" xmlns:xlink="http://www.w3.org/1999/xlink" width="91.25" height="27" viewBox="0 0 91.25 27"><defs><style>.a{fill:none;}.b{clip-path:url(#a);}.c{fill:#333;}</style><clipPath id="a"><rect class="a" width="91.25" height="27"/></clipPath></defs><g class="b"><path d="M0,42.764,4.26,34.33,0,27.521Z" transform="translate(0 -24.081)"/><path class="c" d="M15.475,147.97l10.566-9.719-6.755,2.912Z" transform="translate(-13.541 -120.97)"/><path class="c" d="M10.877,0,.714,19.663,7.328,16.31l5.719-6.918Z" transform="translate(-0.625)"/><path d="M7.328,130.477.714,133.83l5.656.53,6.755-2.912Z" transform="translate(-0.625 -114.167)"/><g transform="translate(17.842 6.646)"><path class="c" d="M151.78,57.233a1.912,1.912,0,0,0-.4-.285,7.537,7.537,0,0,0-.855-.437,8.283,8.283,0,0,0-1.121-.4,4.475,4.475,0,0,0-1.216-.171q-1.672,0-1.672,1.121a.889.889,0,0,0,.18.57,1.591,1.591,0,0,0,.532.409,4.89,4.89,0,0,0,.883.333q.532.152,1.235.342a16.2,16.2,0,0,1,1.748.58,4.7,4.7,0,0,1,1.321.779,3.16,3.16,0,0,1,.836,1.131,3.927,3.927,0,0,1,.294,1.6,4,4,0,0,1-.428,1.928A3.6,3.6,0,0,1,151.989,66a4.775,4.775,0,0,1-1.615.7,8.054,8.054,0,0,1-1.881.219,10.491,10.491,0,0,1-1.52-.114,10.978,10.978,0,0,1-1.52-.332,12.027,12.027,0,0,1-1.435-.522,8,8,0,0,1-1.283-.7l1.368-2.717a2.646,2.646,0,0,0,.494.361,7.361,7.361,0,0,0,1.036.532,10.526,10.526,0,0,0,1.378.475,5.77,5.77,0,0,0,1.539.209q1.653,0,1.653-1.007a.85.85,0,0,0-.247-.627,2.331,2.331,0,0,0-.684-.446,7.431,7.431,0,0,0-1.036-.371q-.6-.171-1.3-.38a11.234,11.234,0,0,1-1.615-.618,4.256,4.256,0,0,1-1.13-.769,2.792,2.792,0,0,1-.665-1.007,3.7,3.7,0,0,1-.219-1.33,4.235,4.235,0,0,1,.4-1.881,4.063,4.063,0,0,1,1.083-1.378,4.716,4.716,0,0,1,1.587-.846,6.3,6.3,0,0,1,1.91-.285,7.265,7.265,0,0,1,1.387.133,10.476,10.476,0,0,1,1.311.342,9.4,9.4,0,0,1,1.169.475q.542.266,1,.532Z" transform="translate(-142.736 -53.167)"/><path class="c" d="M243.814,67.569V54.079h5.757a3.956,3.956,0,0,1,1.777.4,4.56,4.56,0,0,1,1.387,1.045,5,5,0,0,1,.912,1.463,4.358,4.358,0,0,1,.332,1.653,4.731,4.731,0,0,1-.314,1.71,4.878,4.878,0,0,1-.874,1.463,4.12,4.12,0,0,1-1.358,1.026,4.055,4.055,0,0,1-1.767.38H246.93v4.351ZM246.93,60.5h2.546a1.2,1.2,0,0,0,.95-.475,2.106,2.106,0,0,0,.4-1.387,2.417,2.417,0,0,0-.123-.817,1.678,1.678,0,0,0-.333-.57,1.274,1.274,0,0,0-.475-.333,1.451,1.451,0,0,0-.532-.1H246.93Z" transform="translate(-231.179 -53.965)"/><path class="c" d="M326.558,54.079h2.812l4.921,13.49H331.1l-1.045-3.021h-4.2l-1.026,3.021h-3.192Zm2.983,8.322-1.577-4.769L326.349,62.4Z" transform="translate(-299.274 -53.965)"/><path class="c" d="M433.508,67.569V54.079h6.08a3.914,3.914,0,0,1,1.758.4,4.678,4.678,0,0,1,1.4,1.045,4.9,4.9,0,0,1,.921,1.463A4.358,4.358,0,0,1,444,58.639a4.7,4.7,0,0,1-.589,2.3,4.125,4.125,0,0,1-1.615,1.615l2.964,5.016h-3.515l-2.584-4.351h-2.033v4.351Zm3.116-7.068h2.85a1.17,1.17,0,0,0,.95-.523,2.145,2.145,0,0,0,.4-1.34,1.884,1.884,0,0,0-.456-1.33,1.337,1.337,0,0,0-.988-.494h-2.755Z" transform="translate(-397.161 -53.965)"/><path class="c" d="M529.115,60.178a6.809,6.809,0,0,1,.456-2.423A6.6,6.6,0,0,1,530.9,55.6a6.756,6.756,0,0,1,2.128-1.539,6.629,6.629,0,0,1,2.85-.589,6.414,6.414,0,0,1,3.3.817,5.285,5.285,0,0,1,2.081,2.128l-2.394,1.672a2.787,2.787,0,0,0-.58-.883,3.163,3.163,0,0,0-1.624-.874,4.45,4.45,0,0,0-.855-.085,3.218,3.218,0,0,0-1.558.361,3.428,3.428,0,0,0-1.1.931,3.864,3.864,0,0,0-.646,1.292,5.231,5.231,0,0,0-.209,1.463,4.829,4.829,0,0,0,.247,1.539,4.09,4.09,0,0,0,.713,1.311,3.438,3.438,0,0,0,1.121.9,3.207,3.207,0,0,0,1.473.332,3.788,3.788,0,0,0,.865-.1,3.491,3.491,0,0,0,.855-.323,3.053,3.053,0,0,0,.75-.57,2.665,2.665,0,0,0,.551-.865l2.546,1.5a3.965,3.965,0,0,1-.9,1.33,5.563,5.563,0,0,1-1.377.988,7.563,7.563,0,0,1-3.363.817,6.043,6.043,0,0,1-2.688-.6,6.8,6.8,0,0,1-2.109-1.586,7.256,7.256,0,0,1-1.368-2.242A7.012,7.012,0,0,1,529.115,60.178Z" transform="translate(-480.818 -53.433)"/><path class="c" d="M641.366,57.233a1.91,1.91,0,0,0-.4-.285,7.535,7.535,0,0,0-.855-.437,8.281,8.281,0,0,0-1.121-.4,4.474,4.474,0,0,0-1.216-.171q-1.672,0-1.672,1.121a.889.889,0,0,0,.181.57,1.59,1.59,0,0,0,.532.409,4.89,4.89,0,0,0,.883.333q.532.152,1.235.342a16.2,16.2,0,0,1,1.748.58,4.7,4.7,0,0,1,1.32.779,3.161,3.161,0,0,1,.836,1.131,3.929,3.929,0,0,1,.294,1.6,4,4,0,0,1-.427,1.928A3.606,3.606,0,0,1,641.575,66a4.775,4.775,0,0,1-1.615.7,8.054,8.054,0,0,1-1.881.219,10.491,10.491,0,0,1-1.52-.114,10.978,10.978,0,0,1-1.52-.332,12.021,12.021,0,0,1-1.435-.522,7.993,7.993,0,0,1-1.282-.7l1.368-2.717a2.645,2.645,0,0,0,.494.361,7.355,7.355,0,0,0,1.036.532,10.529,10.529,0,0,0,1.377.475,5.771,5.771,0,0,0,1.539.209q1.653,0,1.653-1.007a.851.851,0,0,0-.247-.627,2.332,2.332,0,0,0-.684-.446,7.437,7.437,0,0,0-1.035-.371q-.6-.171-1.3-.38a11.235,11.235,0,0,1-1.615-.618,4.256,4.256,0,0,1-1.13-.769,2.79,2.79,0,0,1-.665-1.007,3.7,3.7,0,0,1-.219-1.33,4.235,4.235,0,0,1,.4-1.881,4.063,4.063,0,0,1,1.083-1.378,4.716,4.716,0,0,1,1.587-.846,6.3,6.3,0,0,1,1.909-.285,7.264,7.264,0,0,1,1.387.133,10.476,10.476,0,0,1,1.311.342,9.406,9.406,0,0,1,1.169.475q.541.266,1,.532Z" transform="translate(-571.124 -53.167)"/></g></g></svg>