<svg xmlns="http://www.w3.org/2000/svg" xmlns:xlink="http://www.w3.org/1999/xlink" width="54.625" height="27" viewBox="0 0 54.625 27"><defs><style>.a{fill:none;}.b{clip-path:url(#a);}.c{fill:#c6324e;}.d{fill:#e54c65;}</style><clipPath id="a"><rect class="a" width="54.625" height="27"/></clipPath></defs><g class="b"><path class="c" d="M0,42.764,4.26,34.33,0,27.521Z" transform="translate(0 -24.081)"/><path class="d" d="M15.475,147.97l10.566-9.719-6.755,2.912Z" transform="translate(-13.541 -120.97)"/><path class="d" d="M10.877,0,.714,19.663,7.328,16.31l5.719-6.918Z" transform="translate(-0.625)"/><path class="c" d="M7.328,130.477.714,133.83l5.656.53,6.755-2.912Z" transform="translate(-0.625 -114.167)"/><g transform="translate(18.013 6.684)"><path class="d" d="M150.792,67.152a6.272,6.272,0,0,1-2.736-.589,6.734,6.734,0,0,1-2.109-1.549,7.049,7.049,0,0,1-1.359-2.195,6.913,6.913,0,0,1-.484-2.546,6.732,6.732,0,0,1,.5-2.565,6.8,6.8,0,0,1,3.544-3.676,6.453,6.453,0,0,1,2.7-.561,6.279,6.279,0,0,1,2.736.589,6.676,6.676,0,0,1,2.109,1.558,7.035,7.035,0,0,1,1.349,2.2,6.942,6.942,0,0,1,.475,2.508,6.737,6.737,0,0,1-.5,2.565,6.827,6.827,0,0,1-3.525,3.686A6.36,6.36,0,0,1,150.792,67.152Zm-3.515-6.84a5.045,5.045,0,0,0,.228,1.51,4.032,4.032,0,0,0,.674,1.3,3.318,3.318,0,0,0,1.112.912,3.276,3.276,0,0,0,1.52.342,3.217,3.217,0,0,0,1.558-.361,3.379,3.379,0,0,0,1.1-.94,4.115,4.115,0,0,0,.656-1.311,5.193,5.193,0,0,0,.218-1.492,5.048,5.048,0,0,0-.228-1.51,3.83,3.83,0,0,0-.684-1.292,3.4,3.4,0,0,0-1.111-.893,3.3,3.3,0,0,0-1.51-.333,3.231,3.231,0,0,0-1.548.352,3.455,3.455,0,0,0-1.1.921,3.891,3.891,0,0,0-.665,1.3A5.183,5.183,0,0,0,147.277,60.312Z" transform="translate(-144.104 -53.472)"/><path class="d" d="M263.673,56.816h-4.1V67.57h-3.116V56.816H252.33V54.08h11.343Z" transform="translate(-238.802 -54.004)"/><path class="d" d="M355.231,67.57V54.08h3.116V64.834h6.536V67.57Z" transform="translate(-328.84 -54.004)"/></g></g></svg>