<svg xmlns="http://www.w3.org/2000/svg" xmlns:xlink="http://www.w3.org/1999/xlink" width="19" height="19" viewBox="0 0 19 19"><defs><style>.a{fill:none;}.b{clip-path:url(#a);}</style><clipPath id="a"><rect class="a" width="19" height="19"/></clipPath></defs><g class="b"><g transform="translate(-928 -774)"><path d="M945,774H930a2,2,0,0,0-2,2v15a2,2,0,0,0,2,2h15a2,2,0,0,0,2-2V776A2,2,0,0,0,945,774Zm1,17a1,1,0,0,1-1,1H930a1,1,0,0,1-1-1V776a1,1,0,0,1,1-1h15a1,1,0,0,1,1,1Z"/><path d="M942,782a3,3,0,1,0-3-3A3,3,0,0,0,942,782Zm0-5a2,2,0,1,1-2,2A2,2,0,0,1,942,777Z"/><path d="M938.366,786.624l-3.1-5.374L929.634,791h15.732l-4.763-8.25Zm-7,3.376,3.9-6.75,3.1,5.374,2.237-3.874,3.031,5.25Z"/></g></g></svg>