<svg xmlns="http://www.w3.org/2000/svg" xmlns:xlink="http://www.w3.org/1999/xlink" width="19" height="19" viewBox="0 0 19 19"><defs><style>.a{fill:none;}.b{clip-path:url(#a);}</style><clipPath id="a"><rect class="a" width="19" height="19"/></clipPath></defs><g class="b"><g transform="translate(-957 -774)"><path d="M965.378,784.48a1.534,1.534,0,0,0,.664-.559,1.358,1.358,0,0,0,.234-.748,1.588,1.588,0,0,0-.521-1.274,2.072,2.072,0,0,0-1.4-.448,1.992,1.992,0,0,0-1.364.471,1.421,1.421,0,0,0-.511,1.164l.008.025h.96a.794.794,0,0,1,.257-.616.945.945,0,0,1,.662-.234.9.9,0,0,1,.678.238.937.937,0,0,1,.229.674,1,1,0,0,1-.214.687.882.882,0,0,1-.7.243h-.693v.793h.693a1.038,1.038,0,0,1,.757.242,1.02,1.02,0,0,1,.244.752.941.941,0,0,1-.266.716,1.021,1.021,0,0,1-.731.252,1,1,0,0,1-.709-.247.846.846,0,0,1-.267-.649h-.959l-.009.025a1.424,1.424,0,0,0,.54,1.235,2.411,2.411,0,0,0,2.834-.029,1.616,1.616,0,0,0,.564-1.3,1.538,1.538,0,0,0-.24-.851A1.429,1.429,0,0,0,965.378,784.48Z"/><path d="M967.585,782.5H968.8v5.084h1v-6.043l-2.211.216Z"/><path d="M974,774H959a2,2,0,0,0-2,2v15a2,2,0,0,0,2,2h15a2,2,0,0,0,2-2V776A2,2,0,0,0,974,774Zm1,17a1,1,0,0,1-1,1H959a1,1,0,0,1-1-1V776a1,1,0,0,1,1-1h15a1,1,0,0,1,1,1Z"/><path d="M973,778.092V777.5a1.5,1.5,0,0,0-1.5-1.5h-10a1.5,1.5,0,0,0-1.5,1.5v.593a1.538,1.538,0,0,0-.99,1.505l.98,4.9-.99,5a1.5,1.5,0,0,0,1.5,1.5h12a1.512,1.512,0,0,0,1.49-1.6l-.98-4.9.99-5A1.5,1.5,0,0,0,973,778.092Zm-12-.592a.5.5,0,0,1,.5-.5h10a.5.5,0,0,1,.5.5v.5H961Zm11.09,6.5H971v1h1.091l.909,4.5a.5.5,0,0,1-.5.5h-12a.516.516,0,0,1-.51-.4l.92-4.6H962v-1h-1.091L960,779.5a.5.5,0,0,1,.5-.5h12a.516.516,0,0,1,.51.4Z"/></g></g></svg>